<svg xmlns="http://www.w3.org/2000/svg" viewBox="0 0 48 48" id="api-mobile-program"><defs><linearGradient id="a" x1="3" x2="31" y1="24" y2="24" gradientUnits="userSpaceOnUse"><stop offset="0" stop-color="#54a5ff"></stop><stop offset="1" stop-color="#8ad3fe"></stop></linearGradient><linearGradient id="b" x1="32" x2="32" y1="14" y2="20" gradientUnits="userSpaceOnUse"><stop offset="0" stop-color="#fe9661"></stop><stop offset="1" stop-color="#ffb369"></stop></linearGradient><linearGradient id="c" x1="19" x2="45" y1="29" y2="29" gradientUnits="userSpaceOnUse"><stop offset="0" stop-color="#d3e6f5"></stop><stop offset="1" stop-color="#f0f7fc"></stop></linearGradient></defs><g data-name="API Mobile Program"><rect width="28" height="46" x="3" y="1" fill="url(#a)" rx="5"></rect><path fill="#f0f7fc" d="M29,6V42a3,3,0,0,1-3,3H8a3,3,0,0,1-3-3V6A3,3,0,0,1,8,3h3V4a2,2,0,0,0,2,2h8a2,2,0,0,0,2-2V3h3A3,3,0,0,1,29,6Z"></path><path fill="url(#b)" d="M21,14H43a2,2,0,0,1,2,2v4a0,0,0,0,1,0,0H19a0,0,0,0,1,0,0V16A2,2,0,0,1,21,14Z"></path><path fill="url(#c)" d="M19,20H45a0,0,0,0,1,0,0V36a2,2,0,0,1-2,2H21a2,2,0,0,1-2-2V20A0,0,0,0,1,19,20Z"></path><path fill="#b4cde1" d="M34 25H32a1 1 0 00-1 1v6a1 1 0 002 0V31h1a3 3 0 000-6zm0 4H33V27h1a1 1 0 010 2zM26 25a3 3 0 00-3 3v4a1 1 0 002 0V31h2v1a1 1 0 002 0V28A3 3 0 0026 25zm-1 4V28a1 1 0 012 0v1zM40 33a1 1 0 01-1-1V26a1 1 0 012 0v6A1 1 0 0140 33z"></path><circle cx="42" cy="17" r="1" fill="#f0f7fc"></circle><circle cx="38" cy="17" r="1" fill="#f0f7fc"></circle><path fill="#ffb369" d="M19 22H14.72a2 2 0 100 2H19zM19 28H14.72a2 2 0 100 2H19zM19 34H14.72a2 2 0 100 2H19z"></path><circle cx="20" cy="4" r="1" fill="#f0f7fc"></circle><path fill="#f0f7fc" d="M14,5h2a1,1,0,0,0,0-2H14a1,1,0,0,0,0,2Z"></path></g></svg>