<svg xmlns="http://www.w3.org/2000/svg" viewBox="0 0 48 48" id="upload-file"><g data-name="Layer 2"><path fill="#4288c7" d="M37.21 19.84a4.54 4.54 0 0 0-1.07-3.06 6.14 6.14 0 0 0-9.81-6.09 4.7 4.7 0 0 0-7.94 2.88 4.69 4.69 0 0 0-6.34 2.6 6.6 6.6 0 0 0 1.56 13h22.67a4.72 4.72 0 0 0 .93-9.35Z"></path><path fill="#ff576b" d="M27.83 32.04 24 25.42l-3.82 6.62h1.67v6.6h4.31v-6.6h1.67z"></path><path fill="#f5f5f5" d="M10.12 24.5a.49.49 0 0 1-.48-.39 5.92 5.92 0 0 1 .95-4.71.5.5 0 1 1 .82.58 4.9 4.9 0 0 0-.8 3.91.5.5 0 0 1-.49.61zM12 19.12a.5.5 0 0 1-.32-.88 5.58 5.58 0 0 1 1.1-.71.49.49 0 0 1 .67.22.5.5 0 0 1-.23.67c-.88.45-.88.7-1.22.7z"></path><path fill="#ff576b" d="M27.15 30.62 24 25.17l-3.15 5.45h1.38v5.44h3.55v-5.44h1.37z"></path></g></svg>