<svg xmlns="http://www.w3.org/2000/svg" data-name="Layer 33" viewBox="0 0 22 22" id="app"><rect width="10" height="7" fill="#3653ff" rx="3.04"></rect><path fill="#99c7ff" d="M478 352.76v5.13a4 4 0 01-3.94 3.94h-2.12a4 4 0 01-3.94-3.94v-5.13a4 4 0 013.94-3.93h2.12A4 4 0 01478 352.76zM466 361.76v5.13a4 4 0 01-3.94 3.94h-2.12a4 4 0 01-3.94-3.94v-5.13a4 4 0 013.94-3.93h2.12A4 4 0 01466 361.76z" transform="translate(-456 -348.83)"></path><rect width="10" height="7" x="12" y="15" fill="#99c7ff" rx="3.04"></rect></svg>